<?xml version="1.0" ?><svg viewBox="0 0 24 24" xmlns="http://www.w3.org/2000/svg"><title/><g data-name="Layer 2" id="Layer_2"><path d="M22.3,1.7l-.87-.06C21,1.61,11.57,1,7.29,5.29,3.54,9.05,4.51,15.71,4.91,17.68L1.29,21.29l1.41,1.41,3.61-3.61a21.89,21.89,0,0,0,4.17.41c2.7,0,6-.56,8.22-2.8C23,12.43,22.39,3,22.36,2.57Zm-5,13.6c-2.46,2.46-6.77,2.35-9.22,2L10.41,15H15V13H12.41l2-2H18V9H16.41l2.29-2.29L17.29,5.29,15,7.59V6H13V9.59l-2,2V9H9v4.59L6.66,15.93c-.3-2.45-.41-6.76,2-9.22C11.65,3.77,18,3.57,20.4,3.6,20.43,6,20.23,12.35,17.29,15.29Z"/></g></svg>