<?xml version="1.0" ?><svg viewBox="0 0 24 24" xmlns="http://www.w3.org/2000/svg"><title/><g data-name="Layer 2" id="Layer_2"><path d="M5,21h8v1h2V19.9a5,5,0,0,0,1.75-.73l3.54,3.54,1.41-1.41-3.54-3.54a5,5,0,0,0-4-7.73A6,6,0,0,0,15,7V2H13V3H5V2H3V7a6,6,0,0,0,2.68,5,6.16,6.16,0,0,0-.93.76,6,6,0,0,0-1.63,3A5.75,5.75,0,0,0,3,17v5H5Zm4-6H5.54a3.93,3.93,0,0,1,.62-.83A4.1,4.1,0,0,1,9.41,13,5,5,0,0,0,9,15ZM5,17H9.42A5,5,0,0,0,11,19H5Zm12-2a3,3,0,1,1-3-3A3,3,0,0,1,17,15ZM13,5V7H5V5ZM5.56,9h6.89A4,4,0,0,1,5.56,9Z"/></g></svg>