<?xml version="1.0" ?><svg viewBox="0 0 24 24" xmlns="http://www.w3.org/2000/svg"><title/><g data-name="Layer 2" id="Layer_2"><path d="M18.31,7.1l1.47-1.47L18.36,4.22,16.9,5.69A8,8,0,0,0,13,4.07V2H11V4.07A8,8,0,0,0,7.1,5.69L5.64,4.22,4.22,5.64,5.69,7.1A8,8,0,0,0,4.07,11H2v2H4.07a8,8,0,0,0,1.62,3.9L4.22,18.36l1.41,1.41L7.1,18.31A8,8,0,0,0,11,19.93V22h2V19.93a8,8,0,0,0,3.9-1.62l1.47,1.47,1.41-1.41L18.31,16.9A8,8,0,0,0,19.93,13H22V11H19.93A8,8,0,0,0,18.31,7.1ZM12,18a6,6,0,1,1,6-6A6,6,0,0,1,12,18Z"/><polygon points="13.8 8.6 12.2 7.4 8 13 12 13 10.2 15.4 11.8 16.6 16 11 12 11 13.8 8.6"/></g></svg>