<?xml version="1.0" ?><svg viewBox="0 0 24 24" xmlns="http://www.w3.org/2000/svg"><title/><g data-name="Layer 2" id="Layer_2"><path d="M6.88,21.32l.23.68h9.77l.23-.68A13.72,13.72,0,0,0,17.49,20H22V16.46l-4-2.69A16.54,16.54,0,0,0,12.62,2.22L12,1.72l-.62.5A16.54,16.54,0,0,0,6,13.77L2,16.46V20H6.51A13.72,13.72,0,0,0,6.88,21.32ZM20,18H17.82c.07-.58.11-1.19.14-1.82l2,1.36ZM12,4.38A15.32,15.32,0,0,1,16,15a19.27,19.27,0,0,1-.57,5H8.57A19.27,19.27,0,0,1,8,15,15.19,15.19,0,0,1,12,4.38ZM4,18v-.46l2-1.36c0,.63.07,1.24.14,1.82Z"/><path d="M12,18a3,3,0,1,0-3-3A3,3,0,0,0,12,18Zm0-4a1,1,0,1,1-1,1A1,1,0,0,1,12,14Z"/></g></svg>